<?xml version="1.0"?>
<svg width="200" height="120" xmlns="http://www.w3.org/2000/svg" xmlns:svg="http://www.w3.org/2000/svg" version="1.1" xml:space="preserve">
 <g class="layer">
  <title>Layer 1</title>
  <g id="svg_1">
   <g id="svg_2">
    <g id="svg_3">
     <path d="m149.97,50.19c-8.02,-14.31 -23.8,-22.52 -40.72,-19.82c-6.64,-13.94 -20.54,-22.79 -36.16,-22.79c-22.12,0 -40.11,17.99 -40.11,40.11c0,0.91 0.03,1.86 0.11,2.84c-19.09,4.35 -33.09,21.58 -33.09,41.43c0,23.46 19.08,42.53 42.54,42.53l33.62,0l0,-7.02l-33.62,0c-19.59,0 -35.51,-15.93 -35.51,-35.51c0,-17.53 13.08,-32.62 30.44,-35.11c0.93,-0.13 1.77,-0.63 2.33,-1.39c0.55,-0.75 0.79,-1.7 0.64,-2.63c-0.3,-1.9 -0.45,-3.58 -0.45,-5.14c0,-18.25 14.86,-33.09 33.1,-33.09c13.7,0 25.79,8.26 30.8,21.04c0.63,1.62 2.35,2.53 4.06,2.14c15.42,-3.57 29.92,3.88 36.6,17.17c0.51,1.02 1.51,1.73 2.64,1.89c17.37,2.48 30.48,17.57 30.48,35.12c0,19.58 -15.93,35.51 -35.52,35.51l-44.76,0l0,7.02l44.76,0c23.46,0 42.54,-19.08 42.54,-42.53c0,-20.41 -14.81,-38.06 -34.72,-41.77z" fill="#1d7387" id="svg_4"/>
    </g>
    <g id="svg_5">
     <path d="m108.59,90.2c1.4,-1.4 1.4,-3.67 0,-5.07l-20.05,-20.05c-0.7,-0.7 -1.61,-1.05 -2.53,-1.05l-0.07,0.01c-0.02,0 -0.03,-0.01 -0.05,-0.01c-0.93,0 -1.85,0.36 -2.54,1.05l-20.04,20.05c-1.4,1.4 -1.4,3.67 0,5.07c1.4,1.41 3.67,1.41 5.08,0l13.91,-13.91l0,97.23c0,1.99 1.6,3.59 3.59,3.59c1.98,0 3.59,-1.6 3.59,-3.59l0,-97.35l14.03,14.03c1.4,1.41 3.67,1.41 5.08,0z" fill="#1d7387" id="svg_6"/>
    </g>
   </g>
  </g>
 </g>
</svg>