<svg width="752.05" height="234.24" xmlns="http://www.w3.org/2000/svg">
 <g>
  <title>Layer 1</title>
  <rect opacity="0.87" stroke-width="2.01" fill=" rgb(37, 176, 155)" y="-109.55075" x="-666.82788" height="194.2069" width="187.55835" id="0_0" class="rect" stroke="#000000" transform="matrix(0.659754 0 0 0.659754 441.311 96.8335)"/>
  <rect opacity="0.87" stroke-width="2.01" fill=" rgb(252, 163, 17)" y="-97.41282" x="-655.10549" height="194.2069" width="187.55835" id="0_1" class="rect" stroke="#000000" transform="matrix(0.659754 0 0 0.659754 441.311 96.8335)"/>
  <rect opacity="0.87" stroke-width="2.01" fill=" rgb(37, 176, 155)" y="-85.27489" x="-643.38309" height="194.2069" width="187.55835" id="0_2" class="rect" stroke="#000000" transform="matrix(0.659754 0 0 0.659754 441.311 96.8335)"/>
  <rect opacity="0.87" stroke-width="2.01" fill=" rgb(252, 163, 17)" y="-73.13696" x="-631.66069" height="194.2069" width="187.55835" id="0_3" class="rect" stroke="#000000" transform="matrix(0.659754 0 0 0.659754 441.311 96.8335)"/>
  <rect opacity="0.87" stroke-width="2.01" fill=" rgb(37, 176, 155)" y="-60.99903" x="-619.9383" height="194.2069" width="187.55835" id="0_4" class="rect" stroke="#000000" transform="matrix(0.659754 0 0 0.659754 441.311 96.8335)"/>
  <rect opacity="0.87" stroke-width="2.01" fill=" rgb(252, 163, 17)" y="-48.8611" x="-608.2159" height="194.2069" width="187.55835" id="0_5" class="rect" stroke="#000000" transform="matrix(0.659754 0 0 0.659754 441.311 96.8335)"/>
  <rect opacity="0.87" stroke-width="2.01" fill=" rgb(37, 176, 155)" y="-36.72317" x="-596.4935" height="194.2069" width="187.55835" id="0_6" class="rect" stroke="#000000" transform="matrix(0.659754 0 0 0.659754 441.311 96.8335)"/>
  <rect opacity="0.87" stroke-width="2.01" fill=" rgb(252, 163, 17)" y="-24.58524" x="-584.77111" height="194.2069" width="187.55835" id="0_7" class="rect" stroke="#000000" transform="matrix(0.659754 0 0 0.659754 441.311 96.8335)"/>
  <rect opacity="0.87" stroke-width="2.01" fill=" rgb(37, 176, 155)" y="-60.99903" x="-372.30266" height="97.10345" width="93.77918" id="1_0" class="rect" stroke="#000000" transform="matrix(0.659754 0 0 0.659754 441.311 96.8335)"/>
  <rect opacity="0.87" stroke-width="2.01" fill=" rgb(252, 163, 17)" y="-48.8611" x="-360.58026" height="97.10345" width="93.77918" id="1_1" class="rect" stroke="#000000" transform="matrix(0.659754 0 0 0.659754 441.311 96.8335)"/>
  <rect opacity="0.87" stroke-width="2.01" fill=" rgb(37, 176, 155)" y="-36.72317" x="-348.85787" height="97.10345" width="93.77918" id="1_2" class="rect" stroke="#000000" transform="matrix(0.659754 0 0 0.659754 441.311 96.8335)"/>
  <rect opacity="0.87" stroke-width="2.01" fill=" rgb(252, 163, 17)" y="-24.58524" x="-337.13547" height="97.10345" width="93.77918" id="1_3" class="rect" stroke="#000000" transform="matrix(0.659754 0 0 0.659754 441.311 96.8335)"/>
  <rect opacity="0.87" stroke-width="2.01" fill=" rgb(37, 176, 155)" y="-12.4473" x="-325.41307" height="97.10345" width="93.77918" id="1_4" class="rect" stroke="#000000" transform="matrix(0.659754 0 0 0.659754 441.311 96.8335)"/>
  <rect opacity="0.87" stroke-width="2.01" fill=" rgb(252, 163, 17)" y="-0.30937" x="-313.69068" height="97.10345" width="93.77918" id="1_5" class="rect" stroke="#000000" transform="matrix(0.659754 0 0 0.659754 441.311 96.8335)"/>
  <rect opacity="0.87" stroke-width="2.01" fill=" rgb(37, 176, 155)" y="11.82856" x="-301.96828" height="97.10345" width="93.77918" id="1_6" class="rect" stroke="#000000" transform="matrix(0.659754 0 0 0.659754 441.311 96.8335)"/>
  <rect opacity="0.87" stroke-width="2.01" fill=" rgb(252, 163, 17)" y="23.96649" x="-290.24588" height="97.10345" width="93.77918" id="1_7" class="rect" stroke="#000000" transform="matrix(0.659754 0 0 0.659754 441.311 96.8335)"/>
  <rect opacity="0.87" stroke-width="2.01" fill=" rgb(37, 176, 155)" y="-145.96455" x="-250.68279" height="72.82759" width="70.33438" id="2_0" class="rect" stroke="#000000" transform="matrix(0.659754 0 0 0.659754 441.311 96.8335)"/>
  <rect opacity="0.87" stroke-width="2.01" fill=" rgb(252, 163, 17)" y="-133.82662" x="-238.9604" height="72.82759" width="70.33438" id="2_1" class="rect" stroke="#000000" transform="matrix(0.659754 0 0 0.659754 441.311 96.8335)"/>
  <rect opacity="0.87" stroke-width="2.01" fill=" rgb(37, 176, 155)" y="-121.68869" x="-227.238" height="72.82759" width="70.33438" id="2_2" class="rect" stroke="#000000" transform="matrix(0.659754 0 0 0.659754 441.311 96.8335)"/>
  <rect opacity="0.87" stroke-width="2.01" fill=" rgb(252, 163, 17)" y="-109.55075" x="-215.5156" height="72.82759" width="70.33438" id="2_3" class="rect" stroke="#000000" transform="matrix(0.659754 0 0 0.659754 441.311 96.8335)"/>
  <rect opacity="0.87" stroke-width="2.01" fill=" rgb(37, 176, 155)" y="-97.41282" x="-203.79321" height="72.82759" width="70.33438" id="2_4" class="rect" stroke="#000000" transform="matrix(0.659754 0 0 0.659754 441.311 96.8335)"/>
  <rect opacity="0.87" stroke-width="2.01" fill=" rgb(252, 163, 17)" y="-85.27489" x="-192.07081" height="72.82759" width="70.33438" id="2_5" class="rect" stroke="#000000" transform="matrix(0.659754 0 0 0.659754 441.311 96.8335)"/>
  <rect opacity="0.87" stroke-width="2.01" fill=" rgb(37, 176, 155)" y="-73.13696" x="-180.34841" height="72.82759" width="70.33438" id="2_6" class="rect" stroke="#000000" transform="matrix(0.659754 0 0 0.659754 441.311 96.8335)"/>
  <rect opacity="0.87" stroke-width="2.01" fill=" rgb(252, 163, 17)" y="-60.99903" x="-168.62602" height="72.82759" width="70.33438" id="2_7" class="rect" stroke="#000000" transform="matrix(0.659754 0 0 0.659754 441.311 96.8335)"/>
  <rect opacity="0.87" stroke-width="2.01" fill=" rgb(37, 176, 155)" y="-48.8611" x="-156.90362" height="72.82759" width="70.33438" id="2_8" class="rect" stroke="#000000" transform="matrix(0.659754 0 0 0.659754 441.311 96.8335)"/>
  <rect opacity="0.87" stroke-width="2.01" fill=" rgb(252, 163, 17)" y="-36.72317" x="-145.18122" height="72.82759" width="70.33438" id="2_9" class="rect" stroke="#000000" transform="matrix(0.659754 0 0 0.659754 441.311 96.8335)"/>
  <rect opacity="0.87" stroke-width="2.01" fill=" rgb(37, 176, 155)" y="-24.58524" x="-133.45882" height="72.82759" width="70.33438" id="2_10" class="rect" stroke="#000000" transform="matrix(0.659754 0 0 0.659754 441.311 96.8335)"/>
  <rect opacity="0.87" stroke-width="2.01" fill=" rgb(252, 163, 17)" y="-12.4473" x="-121.73643" height="72.82759" width="70.33438" id="2_11" class="rect" stroke="#000000" transform="matrix(0.659754 0 0 0.659754 441.311 96.8335)"/>
  <rect opacity="0.87" stroke-width="2.01" fill=" rgb(37, 176, 155)" y="-0.30937" x="-110.01403" height="72.82759" width="70.33438" id="2_12" class="rect" stroke="#000000" transform="matrix(0.659754 0 0 0.659754 441.311 96.8335)"/>
  <rect opacity="0.87" stroke-width="2.01" fill=" rgb(252, 163, 17)" y="11.82856" x="-98.29163" height="72.82759" width="70.33438" id="2_13" class="rect" stroke="#000000" transform="matrix(0.659754 0 0 0.659754 441.311 96.8335)"/>
  <rect opacity="0.87" stroke-width="2.01" fill=" rgb(37, 176, 155)" y="23.96649" x="-86.56924" height="72.82759" width="70.33438" id="2_14" class="rect" stroke="#000000" transform="matrix(0.659754 0 0 0.659754 441.311 96.8335)"/>
  <rect opacity="0.87" stroke-width="2.01" fill=" rgb(252, 163, 17)" y="36.10442" x="-74.84684" height="72.82759" width="70.33438" id="2_15" class="rect" stroke="#000000" transform="matrix(0.659754 0 0 0.659754 441.311 96.8335)"/>
  <rect opacity="0.87" stroke-width="2.01" fill=" rgb(37, 176, 155)" y="48.24235" x="-63.12444" height="72.82759" width="70.33438" id="2_16" class="rect" stroke="#000000" transform="matrix(0.659754 0 0 0.659754 441.311 96.8335)"/>
  <rect opacity="0.87" stroke-width="2.01" fill=" rgb(252, 163, 17)" y="60.38028" x="-51.40205" height="72.82759" width="70.33438" id="2_17" class="rect" stroke="#000000" transform="matrix(0.659754 0 0 0.659754 441.311 96.8335)"/>
  <rect opacity="0.87" stroke-width="2.01" fill=" rgb(37, 176, 155)" y="72.51822" x="-39.67965" height="72.82759" width="70.33438" id="2_18" class="rect" stroke="#000000" transform="matrix(0.659754 0 0 0.659754 441.311 96.8335)"/>
  <rect opacity="0.87" stroke-width="2.01" fill=" rgb(252, 163, 17)" y="84.65615" x="-27.95725" height="72.82759" width="70.33438" id="2_19" class="rect" stroke="#000000" transform="matrix(0.659754 0 0 0.659754 441.311 96.8335)"/>
  <rect opacity="0.87" stroke-width="2.01" fill=" rgb(37, 176, 155)" y="96.79408" x="-16.23486" height="72.82759" width="70.33438" id="2_20" class="rect" stroke="#000000" transform="matrix(0.659754 0 0 0.659754 441.311 96.8335)"/>
  <rect opacity="0.87" stroke-width="2.01" fill=" rgb(252, 163, 17)" y="108.93201" x="-4.51246" height="72.82759" width="70.33438" id="2_21" class="rect" stroke="#000000" transform="matrix(0.659754 0 0 0.659754 441.311 96.8335)"/>
  <rect opacity="0.87" stroke-width="2.01" fill=" rgb(37, 176, 155)" y="121.06994" x="7.20994" height="72.82759" width="70.33438" id="2_22" class="rect" stroke="#000000" transform="matrix(0.659754 0 0 0.659754 441.311 96.8335)"/>
  <rect opacity="0.87" stroke-width="2.01" fill=" rgb(252, 163, 17)" y="133.20787" x="18.93234" height="72.82759" width="70.33438" id="2_23" class="rect" stroke="#000000" transform="matrix(0.659754 0 0 0.659754 441.311 96.8335)"/>
  <rect opacity="0.87" stroke-width="2.01" fill=" rgb(37, 176, 155)" y="-121.68869" x="-57.26324" height="24.27586" width="23.44479" id="3_0" class="rect" stroke="#000000" transform="matrix(0.659754 0 0 0.659754 441.311 96.8335)"/>
  <rect opacity="0.87" stroke-width="2.01" fill=" rgb(252, 163, 17)" y="-109.55075" x="-45.54085" height="24.27586" width="23.44479" id="3_1" class="rect" stroke="#000000" transform="matrix(0.659754 0 0 0.659754 441.311 96.8335)"/>
  <rect opacity="0.87" stroke-width="2.01" fill=" rgb(37, 176, 155)" y="-97.41282" x="-33.81845" height="24.27586" width="23.44479" id="3_2" class="rect" stroke="#000000" transform="matrix(0.659754 0 0 0.659754 441.311 96.8335)"/>
  <rect opacity="0.87" stroke-width="2.01" fill=" rgb(252, 163, 17)" y="-85.27489" x="-22.09605" height="24.27586" width="23.44479" id="3_3" class="rect" stroke="#000000" transform="matrix(0.659754 0 0 0.659754 441.311 96.8335)"/>
  <rect opacity="0.87" stroke-width="2.01" fill=" rgb(37, 176, 155)" y="-73.13696" x="-10.37366" height="24.27586" width="23.44479" id="3_4" class="rect" stroke="#000000" transform="matrix(0.659754 0 0 0.659754 441.311 96.8335)"/>
  <rect opacity="0.87" stroke-width="2.01" fill=" rgb(252, 163, 17)" y="-60.99903" x="1.34874" height="24.27586" width="23.44479" id="3_5" class="rect" stroke="#000000" transform="matrix(0.659754 0 0 0.659754 441.311 96.8335)"/>
  <rect opacity="0.87" stroke-width="2.01" fill=" rgb(37, 176, 155)" y="-48.8611" x="13.07114" height="24.27586" width="23.44479" id="3_6" class="rect" stroke="#000000" transform="matrix(0.659754 0 0 0.659754 441.311 96.8335)"/>
  <rect opacity="0.87" stroke-width="2.01" fill=" rgb(252, 163, 17)" y="-36.72317" x="24.79353" height="24.27586" width="23.44479" id="3_7" class="rect" stroke="#000000" transform="matrix(0.659754 0 0 0.659754 441.311 96.8335)"/>
  <rect opacity="0.87" stroke-width="2.01" fill=" rgb(37, 176, 155)" y="-24.58524" x="36.51593" height="24.27586" width="23.44479" id="3_8" class="rect" stroke="#000000" transform="matrix(0.659754 0 0 0.659754 441.311 96.8335)"/>
  <rect opacity="0.87" stroke-width="2.01" fill=" rgb(252, 163, 17)" y="-12.4473" x="48.23833" height="24.27586" width="23.44479" id="3_9" class="rect" stroke="#000000" transform="matrix(0.659754 0 0 0.659754 441.311 96.8335)"/>
  <rect opacity="0.87" stroke-width="2.01" fill=" rgb(37, 176, 155)" y="-0.30937" x="59.96072" height="24.27586" width="23.44479" id="3_10" class="rect" stroke="#000000" transform="matrix(0.659754 0 0 0.659754 441.311 96.8335)"/>
  <rect opacity="0.87" stroke-width="2.01" fill=" rgb(252, 163, 17)" y="11.82856" x="71.68312" height="24.27586" width="23.44479" id="3_11" class="rect" stroke="#000000" transform="matrix(0.659754 0 0 0.659754 441.311 96.8335)"/>
  <rect opacity="0.87" stroke-width="2.01" fill=" rgb(37, 176, 155)" y="23.96649" x="83.40552" height="24.27586" width="23.44479" id="3_12" class="rect" stroke="#000000" transform="matrix(0.659754 0 0 0.659754 441.311 96.8335)"/>
  <rect opacity="0.87" stroke-width="2.01" fill=" rgb(252, 163, 17)" y="36.10442" x="95.12792" height="24.27586" width="23.44479" id="3_13" class="rect" stroke="#000000" transform="matrix(0.659754 0 0 0.659754 441.311 96.8335)"/>
  <rect opacity="0.87" stroke-width="2.01" fill=" rgb(37, 176, 155)" y="48.24235" x="106.85031" height="24.27586" width="23.44479" id="3_14" class="rect" stroke="#000000" transform="matrix(0.659754 0 0 0.659754 441.311 96.8335)"/>
  <rect opacity="0.87" stroke-width="2.01" fill=" rgb(252, 163, 17)" y="60.38028" x="118.57271" height="24.27586" width="23.44479" id="3_15" class="rect" stroke="#000000" transform="matrix(0.659754 0 0 0.659754 441.311 96.8335)"/>
  <rect opacity="0.87" stroke-width="2.01" fill=" rgb(37, 176, 155)" y="72.51822" x="130.29511" height="24.27586" width="23.44479" id="3_16" class="rect" stroke="#000000" transform="matrix(0.659754 0 0 0.659754 441.311 96.8335)"/>
  <rect opacity="0.87" stroke-width="2.01" fill=" rgb(252, 163, 17)" y="84.65615" x="142.0175" height="24.27586" width="23.44479" id="3_17" class="rect" stroke="#000000" transform="matrix(0.659754 0 0 0.659754 441.311 96.8335)"/>
  <rect opacity="0.87" stroke-width="2.01" fill=" rgb(37, 176, 155)" y="96.79408" x="153.7399" height="24.27586" width="23.44479" id="3_18" class="rect" stroke="#000000" transform="matrix(0.659754 0 0 0.659754 441.311 96.8335)"/>
  <rect opacity="0.87" stroke-width="2.01" fill=" rgb(252, 163, 17)" y="108.93201" x="165.4623" height="24.27586" width="23.44479" id="3_19" class="rect" stroke="#000000" transform="matrix(0.659754 0 0 0.659754 441.311 96.8335)"/>
  <rect opacity="0.87" stroke-width="2.01" fill=" rgb(37, 176, 155)" y="121.06994" x="177.18469" height="24.27586" width="23.44479" id="3_20" class="rect" stroke="#000000" transform="matrix(0.659754 0 0 0.659754 441.311 96.8335)"/>
  <rect opacity="0.87" stroke-width="2.01" fill=" rgb(252, 163, 17)" y="133.20787" x="188.90709" height="24.27586" width="23.44479" id="3_21" class="rect" stroke="#000000" transform="matrix(0.659754 0 0 0.659754 441.311 96.8335)"/>
  <rect opacity="0.87" stroke-width="2.01" fill=" rgb(37, 176, 155)" y="145.3458" x="200.62949" height="24.27586" width="23.44479" id="3_22" class="rect" stroke="#000000" transform="matrix(0.659754 0 0 0.659754 441.311 96.8335)"/>
  <rect opacity="0.87" stroke-width="2.01" fill=" rgb(252, 163, 17)" y="157.48373" x="212.35188" height="24.27586" width="23.44479" id="3_23" class="rect" stroke="#000000" transform="matrix(0.659754 0 0 0.659754 441.311 96.8335)"/>
  <rect stroke-width="2.01" fill-opacity="0" y="16.83737" x="-537.28142" height="30.34483" width="29.30599" id="conv_0" class="conv" stroke="#ffffff" transform="matrix(0.659754 0 0 0.659754 441.311 96.8335)"/>
  <rect stroke-width="2.01" fill-opacity="0" y="32.29587" x="-272.59072" height="22.75862" width="21.97949" id="conv_1" class="conv" stroke="#ffffff" transform="matrix(0.659754 0 0 0.659754 441.311 96.8335)"/>
  <rect stroke-width="2.01" fill-opacity="0" y="138" x="38" height="15" width="15" id="conv_2" class="conv" stroke="#ffffff" transform="matrix(0.659754 0 0 0.659754 441.311 96.8335)"/>
  <line stroke-width="1.005" y2="128.84029" x2="268.38693" y1="127.96215" x1="106.17216" id="conv_0" class="link" stroke="#ffffff"/>
  <line stroke-width="1.005" y2="128.84029" x2="268.38693" y1="107.94203" x1="106.17216" id="conv_0" class="link" stroke="#ffffff"/>
  <line stroke-opacity="0.87" stroke-width="1.005" y2="190.10113" x2="465.21203" y1="133.15593" x1="275.96923" id="conv_1" class="link" stroke="#ffffff"/>
  <line stroke-opacity="0.87" stroke-width="1.005" y2="190.10113" x2="465.21203" y1="118.14084" x1="275.96923" id="conv_1" class="link" stroke="#ffffff"/>
  <line stroke-opacity="0.87" stroke-width="1.005" y2="202.76852" x2="587.67902" y1="196.93834" x1="477.2056" id="conv_2" class="link" stroke="#ffffff"/>
  <line stroke-width="1.005" y2="202.76852" x2="587.67902" y1="189.9313" x1="477.2056" id="conv_2" class="link" stroke="#ffffff"/>
  <polygon opacity="0.87" stroke-width="2.01" fill=" rgb(252, 163, 17)" points="608.4796873133018,71.34914495947669 618.146992680151,71.34914495947669 705.6460665871273,161.9498863288827 695.9787209520873,161.9498863288827 " id="fc_0" class="poly" stroke="#000000"/>
  <polygon opacity="0.87" stroke-width="2.01" fill=" rgb(252, 163, 17)" points="707.5795840359642,105.32441416433721 717.246969939195,105.32441416433721 739.1216981477482,127.97462719106989 729.4543927808991,127.97462719106989 " id="fc_1" class="poly" stroke="#000000"/>
  <polygon stroke="#ffffff" opacity="0.87" stroke-width="2.01" fill="#ffffff" points="741.0552155965852,116.29560354887508 750.7225612316251,116.29560354887508 751.4061540384282,117.00339753834123 741.7388084033882,117.00339753834123 " id="fc_2" class="poly"/>
  <line stroke-width="1.005" y2="161.94988" x2="695.97874" y1="216.75013" x1="596.87882" id="fc_0" class="line" stroke="#ffffff"/>
  <line stroke-width="1.005" y2="71.34915" x2="608.47966" y1="16.5489" x1="418.99915" id="fc_0" class="line" stroke="#ffffff"/>
  <line stroke-width="1.005" y2="127.97461" x2="729.45435" y1="161.94988" x1="705.64611" id="fc_1" class="line" stroke="#ffffff"/>
  <line stroke-width="1.005" y2="105.32443" x2="707.57959" y1="71.34915" x1="618.14704" id="fc_1" class="line" stroke="#ffffff"/>
  <path stroke="#ffffff" stroke-width="1.005" opacity="undefined" d="m739.12173,126.97461l2.61706,-10.97118" id="fc_2"/>
  <line stroke-width="1.005" y2="116.29561" x2="741.0552" y1="105.32443" x1="717.24696" id="fc_2" class="line" stroke="#ffffff"/>
  <text id="svg_2" font-size=" 16px" y="294.80577" x="31.54778" font-family="sans-serif" dy=".35em" class="text" transform="matrix(0.966738 0 0 1.00101 171.468 -38.3118)" stroke="#000000"/>
  <text id="svg_3" font-size=" 16px" y="294.80577" x="169.54778" font-family="sans-serif" dy=".35em" class="text" transform="matrix(0.966738 0 0 1.00101 171.468 -38.3118)" stroke="#000000"/>
  <text id="svg_4" font-size=" 16px" y="294.80577" x="325.04778" font-family="sans-serif" dy=".35em" class="text" transform="matrix(0.966738 0 0 1.00101 171.468 -38.3118)" stroke="#000000"/>
  <text id="svg_5" font-size=" 16px" y="294.80577" x="453.6752" font-family="sans-serif" dy=".35em" class="text" transform="matrix(0.966738 0 0 1.00101 171.468 -38.3118)" stroke="#000000"/>
  <text id="svg_6" font-size=" 16px" y="47.80577" x="-175.95222" font-family="sans-serif" dy="-0.3em" class="info" transform="matrix(0.966738 0 0 1.00101 171.468 -38.3118)" stroke="#000000"/>
  <text id="svg_7" font-size=" 16px" y="79.80577" x="25.04778" font-family="sans-serif" dy="-0.3em" class="info" transform="matrix(0.966738 0 0 1.00101 171.468 -38.3118)" stroke="#000000"/>
  <text id="svg_8" font-size=" 16px" y="23.80577" x="108.04778" font-family="sans-serif" dy="-0.3em" class="info" transform="matrix(0.966738 0 0 1.00101 171.468 -38.3118)" stroke="#000000"/>
  <text id="svg_9" font-size=" 16px" y="39.80577" x="240.04778" font-family="sans-serif" dy="-0.3em" class="info" transform="matrix(0.966738 0 0 1.00101 171.468 -38.3118)" stroke="#000000"/>
  <text id="svg_10" font-size=" 16px" y="94.55094" x="452.04778" font-family="sans-serif" dy="-0.3em" class="info" transform="matrix(0.966738 0 0 1.00101 171.468 -38.3118)" stroke="#000000"/>
  <text id="svg_11" font-size=" 16px" y="128.49206" x="554.55745" font-family="sans-serif" dy="-0.3em" class="info" transform="matrix(0.966738 0 0 1.00101 171.468 -38.3118)" stroke="#000000"/>
  <text id="svg_12" font-size=" 16px" y="139.45222" x="589.18486" font-family="sans-serif" dy="-0.3em" class="info" transform="matrix(0.966738 0 0 1.00101 171.468 -38.3118)" stroke="#000000"/>
 </g>

</svg>