<svg width="752.05" height="234.24" xmlns="http://www.w3.org/2000/svg">
 <g>
  <title>Layer 1</title>
  <rect transform="matrix(0.659754 0 0 0.659754 441.311 96.8335)" stroke="#000000" class="rect" id="0_0" width="187.55835" height="194.2069" x="-666.82788" y="-109.55075" fill=" rgb(37, 176, 155)" stroke-width="2.01" opacity="0.87"/>
  <rect transform="matrix(0.659754 0 0 0.659754 441.311 96.8335)" stroke="#000000" class="rect" id="0_1" width="187.55835" height="194.2069" x="-655.10549" y="-97.41282" fill=" rgb(252, 163, 17)" stroke-width="2.01" opacity="0.87"/>
  <rect transform="matrix(0.659754 0 0 0.659754 441.311 96.8335)" stroke="#000000" class="rect" id="0_2" width="187.55835" height="194.2069" x="-643.38309" y="-85.27489" fill=" rgb(37, 176, 155)" stroke-width="2.01" opacity="0.87"/>
  <rect transform="matrix(0.659754 0 0 0.659754 441.311 96.8335)" stroke="#000000" class="rect" id="0_3" width="187.55835" height="194.2069" x="-631.66069" y="-73.13696" fill=" rgb(252, 163, 17)" stroke-width="2.01" opacity="0.87"/>
  <rect transform="matrix(0.659754 0 0 0.659754 441.311 96.8335)" stroke="#000000" class="rect" id="0_4" width="187.55835" height="194.2069" x="-619.9383" y="-60.99903" fill=" rgb(37, 176, 155)" stroke-width="2.01" opacity="0.87"/>
  <rect transform="matrix(0.659754 0 0 0.659754 441.311 96.8335)" stroke="#000000" class="rect" id="0_5" width="187.55835" height="194.2069" x="-608.2159" y="-48.8611" fill=" rgb(252, 163, 17)" stroke-width="2.01" opacity="0.87"/>
  <rect transform="matrix(0.659754 0 0 0.659754 441.311 96.8335)" stroke="#000000" class="rect" id="0_6" width="187.55835" height="194.2069" x="-596.4935" y="-36.72317" fill=" rgb(37, 176, 155)" stroke-width="2.01" opacity="0.87"/>
  <rect transform="matrix(0.659754 0 0 0.659754 441.311 96.8335)" stroke="#000000" class="rect" id="0_7" width="187.55835" height="194.2069" x="-584.77111" y="-24.58524" fill=" rgb(252, 163, 17)" stroke-width="2.01" opacity="0.87"/>
  <rect transform="matrix(0.659754 0 0 0.659754 441.311 96.8335)" stroke="#000000" class="rect" id="1_0" width="93.77918" height="97.10345" x="-372.30266" y="-60.99903" fill=" rgb(37, 176, 155)" stroke-width="2.01" opacity="0.87"/>
  <rect transform="matrix(0.659754 0 0 0.659754 441.311 96.8335)" stroke="#000000" class="rect" id="1_1" width="93.77918" height="97.10345" x="-360.58026" y="-48.8611" fill=" rgb(252, 163, 17)" stroke-width="2.01" opacity="0.87"/>
  <rect transform="matrix(0.659754 0 0 0.659754 441.311 96.8335)" stroke="#000000" class="rect" id="1_2" width="93.77918" height="97.10345" x="-348.85787" y="-36.72317" fill=" rgb(37, 176, 155)" stroke-width="2.01" opacity="0.87"/>
  <rect transform="matrix(0.659754 0 0 0.659754 441.311 96.8335)" stroke="#000000" class="rect" id="1_3" width="93.77918" height="97.10345" x="-337.13547" y="-24.58524" fill=" rgb(252, 163, 17)" stroke-width="2.01" opacity="0.87"/>
  <rect transform="matrix(0.659754 0 0 0.659754 441.311 96.8335)" stroke="#000000" class="rect" id="1_4" width="93.77918" height="97.10345" x="-325.41307" y="-12.4473" fill=" rgb(37, 176, 155)" stroke-width="2.01" opacity="0.87"/>
  <rect transform="matrix(0.659754 0 0 0.659754 441.311 96.8335)" stroke="#000000" class="rect" id="1_5" width="93.77918" height="97.10345" x="-313.69068" y="-0.30937" fill=" rgb(252, 163, 17)" stroke-width="2.01" opacity="0.87"/>
  <rect transform="matrix(0.659754 0 0 0.659754 441.311 96.8335)" stroke="#000000" class="rect" id="1_6" width="93.77918" height="97.10345" x="-301.96828" y="11.82856" fill=" rgb(37, 176, 155)" stroke-width="2.01" opacity="0.87"/>
  <rect transform="matrix(0.659754 0 0 0.659754 441.311 96.8335)" stroke="#000000" class="rect" id="1_7" width="93.77918" height="97.10345" x="-290.24588" y="23.96649" fill=" rgb(252, 163, 17)" stroke-width="2.01" opacity="0.87"/>
  <rect transform="matrix(0.659754 0 0 0.659754 441.311 96.8335)" stroke="#000000" class="rect" id="2_0" width="70.33438" height="72.82759" x="-250.68279" y="-145.96455" fill=" rgb(37, 176, 155)" stroke-width="2.01" opacity="0.87"/>
  <rect transform="matrix(0.659754 0 0 0.659754 441.311 96.8335)" stroke="#000000" class="rect" id="2_1" width="70.33438" height="72.82759" x="-238.9604" y="-133.82662" fill=" rgb(252, 163, 17)" stroke-width="2.01" opacity="0.87"/>
  <rect transform="matrix(0.659754 0 0 0.659754 441.311 96.8335)" stroke="#000000" class="rect" id="2_2" width="70.33438" height="72.82759" x="-227.238" y="-121.68869" fill=" rgb(37, 176, 155)" stroke-width="2.01" opacity="0.87"/>
  <rect transform="matrix(0.659754 0 0 0.659754 441.311 96.8335)" stroke="#000000" class="rect" id="2_3" width="70.33438" height="72.82759" x="-215.5156" y="-109.55075" fill=" rgb(252, 163, 17)" stroke-width="2.01" opacity="0.87"/>
  <rect transform="matrix(0.659754 0 0 0.659754 441.311 96.8335)" stroke="#000000" class="rect" id="2_4" width="70.33438" height="72.82759" x="-203.79321" y="-97.41282" fill=" rgb(37, 176, 155)" stroke-width="2.01" opacity="0.87"/>
  <rect transform="matrix(0.659754 0 0 0.659754 441.311 96.8335)" stroke="#000000" class="rect" id="2_5" width="70.33438" height="72.82759" x="-192.07081" y="-85.27489" fill=" rgb(252, 163, 17)" stroke-width="2.01" opacity="0.87"/>
  <rect transform="matrix(0.659754 0 0 0.659754 441.311 96.8335)" stroke="#000000" class="rect" id="2_6" width="70.33438" height="72.82759" x="-180.34841" y="-73.13696" fill=" rgb(37, 176, 155)" stroke-width="2.01" opacity="0.87"/>
  <rect transform="matrix(0.659754 0 0 0.659754 441.311 96.8335)" stroke="#000000" class="rect" id="2_7" width="70.33438" height="72.82759" x="-168.62602" y="-60.99903" fill=" rgb(252, 163, 17)" stroke-width="2.01" opacity="0.87"/>
  <rect transform="matrix(0.659754 0 0 0.659754 441.311 96.8335)" stroke="#000000" class="rect" id="2_8" width="70.33438" height="72.82759" x="-156.90362" y="-48.8611" fill=" rgb(37, 176, 155)" stroke-width="2.01" opacity="0.87"/>
  <rect transform="matrix(0.659754 0 0 0.659754 441.311 96.8335)" stroke="#000000" class="rect" id="2_9" width="70.33438" height="72.82759" x="-145.18122" y="-36.72317" fill=" rgb(252, 163, 17)" stroke-width="2.01" opacity="0.87"/>
  <rect transform="matrix(0.659754 0 0 0.659754 441.311 96.8335)" stroke="#000000" class="rect" id="2_10" width="70.33438" height="72.82759" x="-133.45882" y="-24.58524" fill=" rgb(37, 176, 155)" stroke-width="2.01" opacity="0.87"/>
  <rect transform="matrix(0.659754 0 0 0.659754 441.311 96.8335)" stroke="#000000" class="rect" id="2_11" width="70.33438" height="72.82759" x="-121.73643" y="-12.4473" fill=" rgb(252, 163, 17)" stroke-width="2.01" opacity="0.87"/>
  <rect transform="matrix(0.659754 0 0 0.659754 441.311 96.8335)" stroke="#000000" class="rect" id="2_12" width="70.33438" height="72.82759" x="-110.01403" y="-0.30937" fill=" rgb(37, 176, 155)" stroke-width="2.01" opacity="0.87"/>
  <rect transform="matrix(0.659754 0 0 0.659754 441.311 96.8335)" stroke="#000000" class="rect" id="2_13" width="70.33438" height="72.82759" x="-98.29163" y="11.82856" fill=" rgb(252, 163, 17)" stroke-width="2.01" opacity="0.87"/>
  <rect transform="matrix(0.659754 0 0 0.659754 441.311 96.8335)" stroke="#000000" class="rect" id="2_14" width="70.33438" height="72.82759" x="-86.56924" y="23.96649" fill=" rgb(37, 176, 155)" stroke-width="2.01" opacity="0.87"/>
  <rect transform="matrix(0.659754 0 0 0.659754 441.311 96.8335)" stroke="#000000" class="rect" id="2_15" width="70.33438" height="72.82759" x="-74.84684" y="36.10442" fill=" rgb(252, 163, 17)" stroke-width="2.01" opacity="0.87"/>
  <rect transform="matrix(0.659754 0 0 0.659754 441.311 96.8335)" stroke="#000000" class="rect" id="2_16" width="70.33438" height="72.82759" x="-63.12444" y="48.24235" fill=" rgb(37, 176, 155)" stroke-width="2.01" opacity="0.87"/>
  <rect transform="matrix(0.659754 0 0 0.659754 441.311 96.8335)" stroke="#000000" class="rect" id="2_17" width="70.33438" height="72.82759" x="-51.40205" y="60.38028" fill=" rgb(252, 163, 17)" stroke-width="2.01" opacity="0.87"/>
  <rect transform="matrix(0.659754 0 0 0.659754 441.311 96.8335)" stroke="#000000" class="rect" id="2_18" width="70.33438" height="72.82759" x="-39.67965" y="72.51822" fill=" rgb(37, 176, 155)" stroke-width="2.01" opacity="0.87"/>
  <rect transform="matrix(0.659754 0 0 0.659754 441.311 96.8335)" stroke="#000000" class="rect" id="2_19" width="70.33438" height="72.82759" x="-27.95725" y="84.65615" fill=" rgb(252, 163, 17)" stroke-width="2.01" opacity="0.87"/>
  <rect transform="matrix(0.659754 0 0 0.659754 441.311 96.8335)" stroke="#000000" class="rect" id="2_20" width="70.33438" height="72.82759" x="-16.23486" y="96.79408" fill=" rgb(37, 176, 155)" stroke-width="2.01" opacity="0.87"/>
  <rect transform="matrix(0.659754 0 0 0.659754 441.311 96.8335)" stroke="#000000" class="rect" id="2_21" width="70.33438" height="72.82759" x="-4.51246" y="108.93201" fill=" rgb(252, 163, 17)" stroke-width="2.01" opacity="0.87"/>
  <rect transform="matrix(0.659754 0 0 0.659754 441.311 96.8335)" stroke="#000000" class="rect" id="2_22" width="70.33438" height="72.82759" x="7.20994" y="121.06994" fill=" rgb(37, 176, 155)" stroke-width="2.01" opacity="0.87"/>
  <rect transform="matrix(0.659754 0 0 0.659754 441.311 96.8335)" stroke="#000000" class="rect" id="2_23" width="70.33438" height="72.82759" x="18.93234" y="133.20787" fill=" rgb(252, 163, 17)" stroke-width="2.01" opacity="0.87"/>
  <rect transform="matrix(0.659754 0 0 0.659754 441.311 96.8335)" stroke="#000000" class="rect" id="3_0" width="23.44479" height="24.27586" x="-57.26324" y="-121.68869" fill=" rgb(37, 176, 155)" stroke-width="2.01" opacity="0.87"/>
  <rect transform="matrix(0.659754 0 0 0.659754 441.311 96.8335)" stroke="#000000" class="rect" id="3_1" width="23.44479" height="24.27586" x="-45.54085" y="-109.55075" fill=" rgb(252, 163, 17)" stroke-width="2.01" opacity="0.87"/>
  <rect transform="matrix(0.659754 0 0 0.659754 441.311 96.8335)" stroke="#000000" class="rect" id="3_2" width="23.44479" height="24.27586" x="-33.81845" y="-97.41282" fill=" rgb(37, 176, 155)" stroke-width="2.01" opacity="0.87"/>
  <rect transform="matrix(0.659754 0 0 0.659754 441.311 96.8335)" stroke="#000000" class="rect" id="3_3" width="23.44479" height="24.27586" x="-22.09605" y="-85.27489" fill=" rgb(252, 163, 17)" stroke-width="2.01" opacity="0.87"/>
  <rect transform="matrix(0.659754 0 0 0.659754 441.311 96.8335)" stroke="#000000" class="rect" id="3_4" width="23.44479" height="24.27586" x="-10.37366" y="-73.13696" fill=" rgb(37, 176, 155)" stroke-width="2.01" opacity="0.87"/>
  <rect transform="matrix(0.659754 0 0 0.659754 441.311 96.8335)" stroke="#000000" class="rect" id="3_5" width="23.44479" height="24.27586" x="1.34874" y="-60.99903" fill=" rgb(252, 163, 17)" stroke-width="2.01" opacity="0.87"/>
  <rect transform="matrix(0.659754 0 0 0.659754 441.311 96.8335)" stroke="#000000" class="rect" id="3_6" width="23.44479" height="24.27586" x="13.07114" y="-48.8611" fill=" rgb(37, 176, 155)" stroke-width="2.01" opacity="0.87"/>
  <rect transform="matrix(0.659754 0 0 0.659754 441.311 96.8335)" stroke="#000000" class="rect" id="3_7" width="23.44479" height="24.27586" x="24.79353" y="-36.72317" fill=" rgb(252, 163, 17)" stroke-width="2.01" opacity="0.87"/>
  <rect transform="matrix(0.659754 0 0 0.659754 441.311 96.8335)" stroke="#000000" class="rect" id="3_8" width="23.44479" height="24.27586" x="36.51593" y="-24.58524" fill=" rgb(37, 176, 155)" stroke-width="2.01" opacity="0.87"/>
  <rect transform="matrix(0.659754 0 0 0.659754 441.311 96.8335)" stroke="#000000" class="rect" id="3_9" width="23.44479" height="24.27586" x="48.23833" y="-12.4473" fill=" rgb(252, 163, 17)" stroke-width="2.01" opacity="0.87"/>
  <rect transform="matrix(0.659754 0 0 0.659754 441.311 96.8335)" stroke="#000000" class="rect" id="3_10" width="23.44479" height="24.27586" x="59.96072" y="-0.30937" fill=" rgb(37, 176, 155)" stroke-width="2.01" opacity="0.87"/>
  <rect transform="matrix(0.659754 0 0 0.659754 441.311 96.8335)" stroke="#000000" class="rect" id="3_11" width="23.44479" height="24.27586" x="71.68312" y="11.82856" fill=" rgb(252, 163, 17)" stroke-width="2.01" opacity="0.87"/>
  <rect transform="matrix(0.659754 0 0 0.659754 441.311 96.8335)" stroke="#000000" class="rect" id="3_12" width="23.44479" height="24.27586" x="83.40552" y="23.96649" fill=" rgb(37, 176, 155)" stroke-width="2.01" opacity="0.87"/>
  <rect transform="matrix(0.659754 0 0 0.659754 441.311 96.8335)" stroke="#000000" class="rect" id="3_13" width="23.44479" height="24.27586" x="95.12792" y="36.10442" fill=" rgb(252, 163, 17)" stroke-width="2.01" opacity="0.87"/>
  <rect transform="matrix(0.659754 0 0 0.659754 441.311 96.8335)" stroke="#000000" class="rect" id="3_14" width="23.44479" height="24.27586" x="106.85031" y="48.24235" fill=" rgb(37, 176, 155)" stroke-width="2.01" opacity="0.87"/>
  <rect transform="matrix(0.659754 0 0 0.659754 441.311 96.8335)" stroke="#000000" class="rect" id="3_15" width="23.44479" height="24.27586" x="118.57271" y="60.38028" fill=" rgb(252, 163, 17)" stroke-width="2.01" opacity="0.87"/>
  <rect transform="matrix(0.659754 0 0 0.659754 441.311 96.8335)" stroke="#000000" class="rect" id="3_16" width="23.44479" height="24.27586" x="130.29511" y="72.51822" fill=" rgb(37, 176, 155)" stroke-width="2.01" opacity="0.87"/>
  <rect transform="matrix(0.659754 0 0 0.659754 441.311 96.8335)" stroke="#000000" class="rect" id="3_17" width="23.44479" height="24.27586" x="142.0175" y="84.65615" fill=" rgb(252, 163, 17)" stroke-width="2.01" opacity="0.87"/>
  <rect transform="matrix(0.659754 0 0 0.659754 441.311 96.8335)" stroke="#000000" class="rect" id="3_18" width="23.44479" height="24.27586" x="153.7399" y="96.79408" fill=" rgb(37, 176, 155)" stroke-width="2.01" opacity="0.87"/>
  <rect transform="matrix(0.659754 0 0 0.659754 441.311 96.8335)" stroke="#000000" class="rect" id="3_19" width="23.44479" height="24.27586" x="165.4623" y="108.93201" fill=" rgb(252, 163, 17)" stroke-width="2.01" opacity="0.87"/>
  <rect transform="matrix(0.659754 0 0 0.659754 441.311 96.8335)" stroke="#000000" class="rect" id="3_20" width="23.44479" height="24.27586" x="177.18469" y="121.06994" fill=" rgb(37, 176, 155)" stroke-width="2.01" opacity="0.87"/>
  <rect transform="matrix(0.659754 0 0 0.659754 441.311 96.8335)" stroke="#000000" class="rect" id="3_21" width="23.44479" height="24.27586" x="188.90709" y="133.20787" fill=" rgb(252, 163, 17)" stroke-width="2.01" opacity="0.87"/>
  <rect transform="matrix(0.659754 0 0 0.659754 441.311 96.8335)" stroke="#000000" class="rect" id="3_22" width="23.44479" height="24.27586" x="200.62949" y="145.3458" fill=" rgb(37, 176, 155)" stroke-width="2.01" opacity="0.87"/>
  <rect transform="matrix(0.659754 0 0 0.659754 441.311 96.8335)" stroke="#000000" class="rect" id="3_23" width="23.44479" height="24.27586" x="212.35188" y="157.48373" fill=" rgb(252, 163, 17)" stroke-width="2.01" opacity="0.87"/>
  <rect transform="matrix(0.659754 0 0 0.659754 441.311 96.8335)" stroke="#ffffff" class="conv" id="conv_0" width="29.30599" height="30.34483" x="-537.28142" y="16.83737" fill-opacity="0" stroke-width="2.01"/>
  <rect transform="matrix(0.659754 0 0 0.659754 441.311 96.8335)" stroke="#ffffff" class="conv" id="conv_1" width="21.97949" height="22.75862" x="-272.59072" y="32.29587" fill-opacity="0" stroke-width="2.01"/>
  <rect transform="matrix(0.659754 0 0 0.659754 441.311 96.8335)" stroke="#ffffff" class="conv" id="conv_2" width="15" height="15" x="38" y="137" fill-opacity="0" stroke-width="2.01"/>
  <line stroke="#ffffff" class="link" id="conv_0" x1="106.17216" y1="127.96215" x2="268.38693" y2="128.84029" stroke-width="1.005"/>
  <line stroke="#ffffff" class="link" id="conv_0" x1="106.17216" y1="107.94203" x2="268.38693" y2="128.84029" stroke-width="1.005"/>
  <line stroke="#ffffff" class="link" id="conv_1" x1="275.96923" y1="133.15593" x2="465.21203" y2="190.10113" stroke-width="1.005" stroke-opacity="0.87"/>
  <line stroke="#ffffff" class="link" id="conv_1" x1="275.96923" y1="118.14084" x2="465.21203" y2="190.10113" stroke-width="1.005" stroke-opacity="0.87"/>
  <line stroke="#ffffff" class="link" id="conv_2" x1="477.2056" y1="196.93834" x2="587.67902" y2="202.76852" stroke-width="1.005" stroke-opacity="0.87"/>
  <line stroke="#ffffff" class="link" id="conv_2" x1="477.2056" y1="189.9313" x2="587.67902" y2="202.76852" stroke-width="1.005"/>
  <polygon stroke="#ffffff" class="poly" id="fc_0" points="608.4796873133018,71.34914495947669 618.146992680151,71.34914495947669 705.6460665871273,161.9498863288827 695.9787209520873,161.9498863288827 " fill=" rgb(252, 163, 17)" stroke-width="2.01" opacity="0.87"/>
  <polygon stroke="#ffffff" class="poly" id="fc_1" points="707.5795840359642,105.32441416433721 717.246969939195,105.32441416433721 739.1216981477482,127.97462719106989 729.4543927808991,127.97462719106989 " fill=" rgb(252, 163, 17)" stroke-width="2.01" opacity="0.87"/>
  <polygon stroke="#ffffff" class="poly" id="fc_2" points="741.0552155965852,116.29560354887508 750.7225612316251,116.29560354887508 751.4061540384282,117.00339753834123 741.7388084033882,117.00339753834123 " fill=" rgb(252, 163, 17)" stroke-width="2.01" opacity="0.87"/>
  <line stroke="#ffffff" class="line" id="fc_0" x1="596.87882" y1="216.75013" x2="695.97874" y2="161.94988" stroke-width="1.005"/>
  <line stroke="#ffffff" class="line" id="fc_0" x1="418.99915" y1="16.5489" x2="608.47966" y2="71.34915" stroke-width="1.005"/>
  <line stroke="#ffffff" class="line" id="fc_1" x1="705.64611" y1="161.94988" x2="729.45435" y2="127.97461" stroke-width="1.005"/>
  <line stroke="#ffffff" class="line" id="fc_1" x1="618.14704" y1="71.34915" x2="707.57959" y2="105.32443" stroke-width="1.005"/>
  <path id="fc_2" d="m739.12173,126.97461l2.61706,-10.97118" opacity="undefined" stroke-width="1.005" stroke="#ffffff"/>
  <line stroke="#ffffff" class="line" id="fc_2" x1="717.24696" y1="105.32443" x2="741.0552" y2="116.29561" stroke-width="1.005"/>
  <text stroke="#000000" transform="matrix(0.966738 0 0 1.00101 171.468 -38.3118)" class="text" dy=".35em" font-family="sans-serif" x="31.54778" y="294.80577" font-size=" 16px" id="svg_2"/>
  <text stroke="#000000" transform="matrix(0.966738 0 0 1.00101 171.468 -38.3118)" class="text" dy=".35em" font-family="sans-serif" x="169.54778" y="294.80577" font-size=" 16px" id="svg_3"/>
  <text stroke="#000000" transform="matrix(0.966738 0 0 1.00101 171.468 -38.3118)" class="text" dy=".35em" font-family="sans-serif" x="325.04778" y="294.80577" font-size=" 16px" id="svg_4"/>
  <text stroke="#000000" transform="matrix(0.966738 0 0 1.00101 171.468 -38.3118)" class="text" dy=".35em" font-family="sans-serif" x="453.6752" y="294.80577" font-size=" 16px" id="svg_5"/>
  <text stroke="#000000" transform="matrix(0.966738 0 0 1.00101 171.468 -38.3118)" class="info" dy="-0.3em" font-family="sans-serif" x="-175.95222" y="47.80577" font-size=" 16px" id="svg_6"/>
  <text stroke="#000000" transform="matrix(0.966738 0 0 1.00101 171.468 -38.3118)" class="info" dy="-0.3em" font-family="sans-serif" x="25.04778" y="79.80577" font-size=" 16px" id="svg_7"/>
  <text stroke="#000000" transform="matrix(0.966738 0 0 1.00101 171.468 -38.3118)" class="info" dy="-0.3em" font-family="sans-serif" x="108.04778" y="23.80577" font-size=" 16px" id="svg_8"/>
  <text stroke="#000000" transform="matrix(0.966738 0 0 1.00101 171.468 -38.3118)" class="info" dy="-0.3em" font-family="sans-serif" x="240.04778" y="39.80577" font-size=" 16px" id="svg_9"/>
  <text stroke="#000000" transform="matrix(0.966738 0 0 1.00101 171.468 -38.3118)" class="info" dy="-0.3em" font-family="sans-serif" x="452.04778" y="94.55094" font-size=" 16px" id="svg_10"/>
  <text stroke="#000000" transform="matrix(0.966738 0 0 1.00101 171.468 -38.3118)" class="info" dy="-0.3em" font-family="sans-serif" x="554.55745" y="128.49206" font-size=" 16px" id="svg_11"/>
  <text stroke="#000000" transform="matrix(0.966738 0 0 1.00101 171.468 -38.3118)" class="info" dy="-0.3em" font-family="sans-serif" x="589.18486" y="139.45222" font-size=" 16px" id="svg_12"/>
 </g>

</svg>