<svg width="524.67004" height="400.49112" xmlns="http://www.w3.org/2000/svg">
 <g>
  <title>Layer 1</title>
  <path id="svg_1" fill="#fca311" d="m252.76565,148.861c2.86976,-3.16131 7.60931,-2.23744 10.76275,-0.00619c4.05844,2.87158 5.21907,8.11556 5.81777,12.76395c1.01352,7.86914 1.31341,18.99289 10.23692,22.28274c4.12282,1.51997 8.84227,0.26478 12.32454,-2.20329c3.80362,-2.69582 6.17619,-6.84264 7.76535,-11.1404c1.92404,-5.2034 3.03773,-10.76951 3.98177,-16.22258c0.9654,-5.57644 1.59813,-11.21294 1.88228,-16.86528c0.27799,-5.5299 0.09705,-11.02347 -0.12279,-16.54977c-0.17165,-4.31476 -0.23712,-8.84561 1.22036,-12.97151c1.472,-4.167 4.89447,-7.3365 9.39465,-7.75455c4.36807,-0.40578 8.86681,1.43616 12.02712,4.40895c7.58288,7.13297 7.93962,18.7777 9.63441,28.34164c0.89044,5.0249 2.19211,10.10963 4.9207,14.4814c2.24409,3.59549 5.36287,6.6098 8.95517,8.84618c7.24549,4.51067 16.47836,5.827 24.51844,2.72806c7.84962,-3.02553 14.1682,-9.63939 16.9023,-17.58902c0.67522,-1.96325 1.09231,-3.99133 1.30383,-6.05478c0.09834,-0.95936 -1.40236,-0.95249 -1.5,0c-0.89895,8.76944 -6.52803,16.71146 -14.24183,20.87077c-7.93725,4.27979 -17.54933,3.73678 -25.30418,-0.70008c-3.81245,-2.18125 -7.12878,-5.25788 -9.43314,-9.00978c-2.79459,-4.55009 -3.9913,-9.85369 -4.86189,-15.06098c-1.57239,-9.405 -2.28567,-20.2034 -9.33431,-27.4246c-5.46655,-5.60038 -15.52605,-7.84785 -21.40106,-1.60977c-6.0495,6.42335 -4.23607,16.77036 -4.04289,24.74402c0.28291,11.67769 -0.92109,23.38256 -3.58993,34.755c-1.1617,4.95023 -2.49801,10.05492 -5.4137,14.29959c-2.66461,3.87915 -7.01959,6.88593 -11.86898,6.83807c-4.83612,-0.04773 -8.23405,-3.60209 -9.95096,-7.83966c-1.81134,-4.47065 -1.93003,-9.29889 -2.55681,-14.01808c-0.57538,-4.33215 -1.62376,-9.12611 -4.87253,-12.29657c-2.52633,-2.46544 -6.27409,-4.05242 -9.82974,-3.4854c-1.70851,0.27246 -3.22356,1.1026 -4.38429,2.38125c-0.64757,0.71336 0.41014,1.77727 1.06066,1.06066l0,0l0.00001,0.00001z"/>
  <path id="svg_10" fill="#e6e6e6" d="m333.8104,87.33546l-34.22061,0c-0.86273,0 -1.56471,-0.70199 -1.56471,-1.56472s0.70199,-1.56439 1.56471,-1.56439l34.22061,0c0.86273,0 1.56439,0.70166 1.56439,1.56439s-0.70166,1.56471 -1.56439,1.56471l0,0.00001z"/>
  <path id="svg_11" fill="#e5e5e5" d="m386.8104,178.33546l-34.22061,0c-0.86273,0 -1.56471,-0.70199 -1.56471,-1.56472s0.70199,-1.56439 1.56471,-1.56439l34.22061,0c0.86273,0 1.56439,0.70166 1.56439,1.56439s-0.70166,1.56471 -1.56439,1.56471l0,0.00001z"/>
  <path id="svg_12" fill="#e5e5e5" d="m414.8104,239.33546l-34.22061,0c-0.86273,0 -1.56471,-0.70199 -1.56471,-1.56472s0.70199,-1.56439 1.56471,-1.56439l34.22061,0c0.86273,0 1.56439,0.70166 1.56439,1.56439s-0.70166,1.56471 -1.56439,1.56471l0,0.00001z"/>
  <path id="svg_13" fill="#e5e5e5" d="m258.8104,53.33546l-34.22061,0c-0.86273,0 -1.56471,-0.70199 -1.56471,-1.56472s0.70199,-1.56439 1.56471,-1.56439l34.22061,0c0.86273,0 1.56439,0.70166 1.56439,1.56439s-0.70166,1.56471 -1.56439,1.56471l0,0.00001z"/>
  <path id="svg_14" fill="#e5e5e5" d="m0,397.59439c0,0.10538 0.53003,0.19 1.19006,0.19l522.28998,0c0.65997,0 1.19,-0.08462 1.19,-0.19c0,-0.10537 -0.53003,-0.19 -1.19,-0.19l-522.28998,0c-0.66003,0 -1.19006,0.08463 -1.19006,0.19z" stroke="null"/>
  <path id="svg_15" fill="#1e7a8f" d="m397.24803,222.17969l-155.10009,0c-0.55228,0 -1,-0.44772 -1,-1l0,-148c0,-0.55273 0.44775,-1 1,-1s1,0.44727 1,1l0,60.38821c0,47.83437 38.77742,86.61179 86.61179,86.61179l67.48831,0c0.55225,0 1,0.44727 1,1s-0.44775,1 -1,1l-0.00001,0z"/>
  <path id="svg_16" fill="#e5e5e5" d="m274.8104,162.69908l-34.22061,0c-0.86273,0 -1.56471,-0.70199 -1.56471,-1.56472s0.70199,-1.56439 1.56471,-1.56439l34.22061,0c0.86273,0 1.56439,0.70166 1.56439,1.56439s-0.70166,1.56471 -1.56439,1.56471l0,0.00001z"/>
  <g id="svg_17">
   <path fill="#ffb6b6" d="m240.87964,166.15159c5.42719,-1.79229 8.9016,-6.04538 7.76041,-9.49909s-6.46521,-4.79971 -11.8941,-3.00605c-2.17845,0.68675 -4.16075,1.8852 -5.78107,3.49511l-22.89933,7.88442l3.92898,10.66712l22.15755,-8.90516c2.26117,0.32821 4.56806,0.11001 6.72756,-0.63636l0,0.00001z" id="uuid-5c502ea6-9d8d-47ac-9944-b5b4822d592a-137"/>
   <path fill="#ffb6b6" d="m123.16708,227.28894c0.18529,5.71248 3.28296,10.24731 6.9184,10.12879s6.43132,-4.84502 6.2452,-10.55951c-0.04304,-2.28372 -0.63235,-4.52394 -1.71865,-6.5332l-1.09073,-24.19408l-11.34266,0.75385l2.2795,23.77105c-0.95392,2.07621 -1.39663,4.35071 -1.29105,6.63311l-0.00001,-0.00001z" id="uuid-ca9917be-6801-4c2d-b7fb-204f6c00dfb7-138"/>
   <g id="svg_18">
    <polygon id="svg_19" fill="#ffb6b6" points="149.3534698486328,390.31134033203125 159.47793579101562,390.31036376953125 162.07196044921875,351 149.3514404296875,351.259521484375 149.3534698486328,390.31134033203125 "/>
    <path id="svg_20" fill="#2f2e41" d="m184.04113,390.08169l0,0c0.31524,0.53092 0.48158,2.2445 0.48158,2.86192l0,0c0,1.89778 -1.53843,3.43628 -3.43628,3.43628l-31.35425,0c-1.29466,0 -2.34425,-1.04953 -2.34425,-2.34425l0,-1.30538s-1.55106,-3.92334 1.6423,-8.75907c0,0 3.96893,3.78645 9.89953,-2.14415l1.74888,-3.16823l12.65949,9.25851l7.01697,0.86372c1.53517,0.18895 2.89624,-0.02932 3.68591,1.30063l0.00012,0l0,0.00002z"/>
   </g>
   <g id="svg_21">
    <polygon id="svg_22" fill="#ffb6b6" points="173.3534698486328,390.31134033203125 183.47793579101562,390.31036376953125 186.07196044921875,351 173.3514404296875,351.259521484375 173.3534698486328,390.31134033203125 "/>
    <path id="svg_23" fill="#2f2e41" d="m208.04113,390.08169l0,0c0.31524,0.53092 0.48158,2.2445 0.48158,2.86192l0,0c0,1.89778 -1.53843,3.43628 -3.43628,3.43628l-31.35425,0c-1.29466,0 -2.34425,-1.04953 -2.34425,-2.34425l0,-1.30538s-1.55106,-3.92334 1.6423,-8.75907c0,0 3.96893,3.78645 9.89953,-2.14415l1.74888,-3.16823l12.65949,9.25851l7.01697,0.86372c1.53517,0.18895 2.89624,-0.02932 3.68591,1.30063l0.00012,0l0,0.00002z"/>
   </g>
   <circle id="svg_24" fill="#ffb6b6" r="14.89321" cy="82.62152" cx="155.24496"/>
   <polygon id="svg_25" fill="#2f2e41" points="134.63816833496094,206.5 141.63816833496094,306.5 145.63816833496094,373.5 164.63816833496094,372.5 162.63816833496094,299.5 166.63816833496094,254.5 172.63816833496094,372.5 187.76022338867188,372.5 193.63816833496094,207.5 161.13816833496094,203 134.63816833496094,206.5 "/>
   <path id="svg_26" fill="#2f2e41" d="m160.63817,94.5c-4.23587,4.07751 -14.02512,1.3739 -19,0c-2.73837,-0.75623 -4.39096,-1.53564 -5,-3c-0.42337,-1.01794 -0.1828,-1.98315 -1,-4c-0.47864,-1.1814 -0.73108,-1.26953 -1,-2c-0.74966,-2.03625 0.29163,-3.85046 1,-6c1.47809,-4.48523 -0.28665,-4.98889 1,-8c1.93433,-4.52686 7.19617,-6.36865 9,-7c3.36783,-1.17883 6.17654,-1.0542 7,-1c5.27545,0.34729 8.80237,3.05432 10,4c2.42767,1.91699 3.61844,3.9447 6,8c2.07245,3.52893 2.22351,4.88318 2,6c-0.34058,1.70178 -1.32202,1.70813 -2,4c-0.76959,2.60156 0.1058,3.90906 -1,5c-0.7475,0.73743 -1.44217,0.43066 -3,1c-2.14407,0.78357 -3.20242,2.2323 -4,3z"/>
   <path id="svg_27" fill="#fca311" d="m172.63817,109.5s-15,-19 -34,-12l-6.15354,12l-2.0559,1.94608c-8.62416,8.16349 -12.63663,20.07364 -10.71041,31.7915l8.91985,54.26242s-1,21 6,27c0,0 10,-19 34,-10s29,4 29,4l-8,-57l-17,-52z"/>
   <path id="svg_28" fill="#fca311" d="m167.63817,112.5l-5,11l19,64l52,-19l-7,-12l-25,7s-19,-56 -34,-51z"/>
   <polygon id="svg_29" fill="#fca311" points="132.13816833496094,213 121.13816833496094,213 119.13816833496094,133 132.13816833496094,160 132.13816833496094,213 "/>
  </g>
  <circle stroke-opacity="0" stroke="#1e7a8f" id="svg_30" fill="#1e7a8f" r="4.5" cy="148.5" cx="252.63817"/>
  <circle stroke-opacity="0" stroke="#1e7a8f" id="svg_31" fill="#1e7a8f" r="4.5" cy="183.5" cx="282.63817"/>
  <circle stroke-opacity="0" stroke="#1e7a8f" id="svg_32" fill="#1e7a8f" r="4.5" cy="99.5" cx="316.63817"/>
  <circle stroke-opacity="0" stroke="#1e7a8f" id="svg_33" fill="#1e7a8f" r="4.5" cy="161.5" cx="366.63817"/>
  <circle stroke="#1e7a8f" id="svg_34" fill="#1e7a8f" r="4.5" cy="135.5" cx="395.63817"/>
  <g id="svg_35">
   <path id="svg_36" fill="#1e7a8f" d="m387.06526,40.02396l8.22992,3.89856c-3.37555,-4.71082 -6.28418,-12.06805 -7.84137,-17.92249c-2.63654,5.45343 -6.88672,12.1261 -11.09375,16.11194l8.69812,-2.23767c-5.35974,26.26794 -25.5191,45.12573 -48.60437,45.12573l-0.32679,0.9488c24.11316,0 45.46577,-18.59639 50.93824,-45.92488l0,0.00001z"/>
   <path id="svg_37" fill="#1e7a8f" d="m362.18605,0l52,0c2.20557,0 4,1.79443 4,4s-1.79443,4 -4,4l-52,0c-2.20557,0 -4,-1.79443 -4,-4s1.79443,-4 4,-4z"/>
  </g>
  <path id="svg_38" fill="#1e7a8f" d="m397.31639,230.36426c-0.54834,0 -1.10156,-0.12207 -1.62842,-0.36914c-1.29932,-0.61035 -2.11523,-1.83105 -2.18164,-3.26465l-0.53906,-11.62598c-0.06934,-1.49316 0.70996,-2.85059 2.03418,-3.54395c1.32373,-0.69336 2.88428,-0.55859 4.07129,0.34766l7.91797,6.05566c0.95215,0.72754 1.49609,1.83301 1.49219,3.03027c-0.00342,1.19922 -0.5542,2.2998 -1.51074,3.02246l-7.37891,5.57129c-0.68115,0.51367 -1.47363,0.77637 -2.27686,0.77637l0,0.00001z"/>
  <path id="svg_39" fill="#1e7a8f" d="m251.34464,74.14915c0,0.54834 -0.12207,1.10156 -0.36914,1.62842c-0.61035,1.29932 -1.83105,2.11523 -3.26465,2.18164l-11.62598,0.53906c-1.49316,0.06934 -2.85059,-0.70996 -3.54395,-2.03418c-0.69336,-1.32373 -0.55859,-2.88428 0.34766,-4.07129l6.05566,-7.91797c0.72754,-0.95215 1.83301,-1.49609 3.03027,-1.49219c1.19922,0.00342 2.2998,0.5542 3.02246,1.51074l5.57129,7.37891c0.51367,0.68115 0.77637,1.47363 0.77637,2.27686l0.00001,0z"/>
  <path id="svg_40" fill="#fca311" d="m316.26889,63.85272c-5.92014,-1.41814 -12.24545,-0.13464 -17.30614,3.2084c-5.30668,3.50554 -8.82031,9.11903 -10.0096,15.3379c-2.45363,12.83018 5.04261,25.64732 16.88993,30.75384c12.45438,5.36818 27.2702,1.76616 36.31447,-8.19696c4.48285,-4.93828 7.28456,-11.18568 8.12807,-17.79225c0.83098,-6.50841 -0.11676,-14.01752 -4.05771,-19.44941c-3.90912,-5.38802 -10.41844,-7.19611 -16.705,-8.07909c-6.09979,-0.85675 -14.19186,-1.22914 -17.49008,5.22723c-0.62885,1.23099 -0.92441,2.5575 -0.85473,3.93811c0.04848,0.96063 1.54878,0.96642 1.5,0c-0.15235,-3.01869 1.86017,-5.54107 4.43979,-6.89779c2.98966,-1.57238 6.5957,-1.43922 9.85614,-1.08876c5.88621,0.6327 12.56907,1.76138 16.81389,6.28219c4.22843,4.50336 5.49595,11.36601 5.23347,17.34385c-0.27397,6.23955 -2.42378,12.38083 -6.19084,17.371c-7.43366,9.84727 -20.43969,14.53216 -32.40476,11.35104c-11.65835,-3.09958 -11.81078,-10.01835 -11.6183,-22.27078c0.10268,-6.53654 -6.07181,-16.82518 -1.03063,-21.08477c4.9357,-4.17047 11.77663,-6.02045 18.0933,-4.50732c0.93824,0.22475 1.33861,-1.22128 0.39876,-1.44642l0,0l-0.00003,-0.00001z"/>
 </g>

</svg>